<?xml version="1.0" standalone="no"?>
<!DOCTYPE svg PUBLIC "-//W3C//DTD SVG 20010904//EN"
 "http://www.w3.org/TR/2001/REC-SVG-20010904/DTD/svg10.dtd">
<svg version="1.0" xmlns="http://www.w3.org/2000/svg"
 width="512.000000pt" height="512.000000pt" viewBox="0 0 512.000000 512.000000"
 preserveAspectRatio="xMidYMid meet">

<g transform="translate(0.000000,512.000000) scale(0.100000,-0.100000)"
fill="#000000" stroke="none">
<path d="M2481 3429 c-83 -14 -179 -65 -242 -128 -83 -84 -124 -182 -149 -357
-27 -195 72 -384 245 -470 276 -136 610 3 685 286 29 109 -5 344 -65 447 -97
165 -288 254 -474 222z"/>
<path d="M1617 3196 c-104 -29 -188 -123 -202 -228 -9 -65 14 -101 67 -106 49
-4 76 22 87 83 13 68 54 105 116 105 62 0 103 -37 116 -105 15 -84 82 -113
136 -59 23 23 25 30 19 76 -13 95 -67 173 -149 212 -66 32 -129 39 -190 22z"/>
<path d="M3370 3197 c-115 -32 -190 -118 -206 -235 -6 -46 -4 -53 19 -76 54
-54 121 -25 136 59 13 68 54 105 116 105 62 0 103 -37 116 -105 15 -84 82
-113 136 -59 23 23 25 30 19 76 -13 95 -67 173 -149 212 -65 31 -129 39 -187
23z"/>
<path d="M2143 2244 c-23 -23 -25 -31 -20 -79 16 -152 155 -256 303 -225 29 6
69 22 89 36 20 13 40 24 45 24 5 0 25 -11 45 -24 153 -104 373 1 392 187 5 50
3 58 -20 81 -50 50 -120 20 -130 -56 -12 -91 -115 -131 -178 -69 -17 18 -29
40 -29 56 0 52 -36 94 -80 94 -44 0 -80 -42 -80 -94 0 -16 -12 -38 -29 -56
-61 -61 -164 -24 -178 64 -12 80 -79 112 -130 61z"/>
</g>
</svg>
