<svg width="192" height="192" viewBox="0 0 192 192" fill="none" xmlns="http://www.w3.org/2000/svg">
<g clip-path="url(#clip0)">
<path d="M24.9657 120.694C38.6884 120.694 49.8128 109.57 49.8128 95.8471C49.8128 82.1244 38.6884 71 24.9657 71C11.2431 71 0.118652 82.1244 0.118652 95.8471C0.118652 109.57 11.2431 120.694 24.9657 120.694Z" fill="#7856FF"/>
<path d="M113.06 113.918C123.04 113.918 131.13 105.827 131.13 95.8471C131.13 85.867 123.04 77.7765 113.06 77.7765C103.08 77.7765 94.9893 85.867 94.9893 95.8471C94.9893 105.827 103.08 113.918 113.06 113.918Z" fill="#7856FF"/>
<path d="M184.213 104.882C188.579 104.882 192.119 101.343 192.119 96.9765C192.119 92.6102 188.579 89.0706 184.213 89.0706C179.846 89.0706 176.307 92.6102 176.307 96.9765C176.307 101.343 179.846 104.882 184.213 104.882Z" fill="#7856FF"/>
</g>
<defs>
<clipPath id="clip0">
<rect width="192" height="192" fill="white"/>
</clipPath>
</defs>
</svg>
