<svg width="256" height="256" viewBox="0 0 256 256" fill="none" xmlns="http://www.w3.org/2000/svg">
<path d="M128 256C198.692 256 256 200.896 256 132.923C256 64.9499 198.692 9.84637 128 9.84637C57.3077 9.84637 0 64.9499 0 132.923C0 200.896 57.3077 256 128 256Z" fill="#3056D3"/>
<path d="M118.5 140V208H68.5V51.75H118.5V115.5H119.5C119.833 110.5 120.667 106.5 122 103.5L146.5 51.75H200.5L163 128.5L201.75 208H147.75L122 152C120.667 149 119.833 145 119.5 140H118.5Z" fill="white"/>
<circle cx="120" cy="133" r="24" fill="#F9DA38"/>
</svg>
